<?xml version="1.0" encoding="utf-8"?>
<!-- Generator: Adobe Illustrator 18.0.0, SVG Export Plug-In . SVG Version: 6.00 Build 0)  -->
<!DOCTYPE svg PUBLIC "-//W3C//DTD SVG 1.1//EN" "http://www.w3.org/Graphics/SVG/1.1/DTD/svg11.dtd">
<svg version="1.1" id="Layer_1" xmlns="http://www.w3.org/2000/svg" xmlns:xlink="http://www.w3.org/1999/xlink" x="0px" y="0px"
	 viewBox="0 0 900 900" enable-background="new 0 0 900 900" xml:space="preserve">
<path fill-rule="evenodd" clip-rule="evenodd" fill="#36BEB8" d="M394.5,540.8H297v-83.9c39.8,6.3,86.4,20.6,137.8,43.4l3.5,1.4
	h-43.8V540.8z"/>
<path fill-rule="evenodd" clip-rule="evenodd" fill="#36BEB8" d="M297,468.6h51.9c26.7,7.7,55.4,18.2,85.9,31.7l3.5,1.4h-43.8v170.9
	H297V468.6z"/>
<rect x="297" y="600.4" fill-rule="evenodd" clip-rule="evenodd" fill="#36BEB8" width="97.5" height="204"/>
<linearGradient id="SVGID_1_" gradientUnits="userSpaceOnUse" x1="297.0077" y1="241.0605" x2="809.8464" y2="241.0605">
	<stop  offset="0.4335" style="stop-color:#36BEB8"/>
	<stop  offset="1" style="stop-color:#2D3C4C"/>
	<stop  offset="1" style="stop-color:#2B3648"/>
</linearGradient>
<path fill="url(#SVGID_1_)" d="M665.3,395.7c4.5-2.4,8.5-5.1,12.1-8c22.6-18.3,33.9-49.4,33.9-93.7c0-42.6-11.1-73.2-33.6-91.7
	c-22.5-18.5-59.7-27.8-112.2-27.8H394.5v175.5c-33.8-15-66.6-23.5-97.5-26.4V86.4h264.2c42.9,0,75.5,2.2,98,6.3
	c22.3,4.2,42.4,11.2,59.9,21c29.3,16,51.7,39.4,67.2,70.7c15.6,31.1,23.5,67.7,23.5,109.7c0,12.3-0.8,24.3-2.3,35.7l-0.2,0.2
	l0.2-0.7l-2,2.6C770.9,367.3,721.4,387.9,665.3,395.7"/>
<linearGradient id="SVGID_2_" gradientUnits="userSpaceOnUse" x1="90.1536" y1="473.3947" x2="807.517" y2="473.3947">
	<stop  offset="0" style="stop-color:#36BEB8"/>
	<stop  offset="1" style="stop-color:#2B3648"/>
</linearGradient>
<path fill-rule="evenodd" clip-rule="evenodd" fill="url(#SVGID_2_)" d="M807.5,329.3c-75.6,102.4-260.7,103.5-407.9,36.4
	c-179.9-82-331.3,28.9-306.9,164.9c10.7,76.3,91.4,100.8,145.6,79.6c39.5-15.5,72.1-81.2,38.3-117c-23.4-25-69.4-3.1-55.1,27.6
	c4.2-21.1,34.2-13,33.1,4.2c-7.7,84.9-117.2,43.1-94.4-24.1c22.6-62,129.8-64.8,274.5-0.5C582.6,559.2,762.6,528,807.5,329.3"/>
<path fill-rule="evenodd" clip-rule="evenodd" fill="#FFFFFF" d="M166.2,435.4c155.6-159.6,393,212.6,640.5-104.2
	C575.2,677.5,348.5,299.1,166.2,435.4"/>
</svg>
